<?xml version="1.0" encoding="iso-8859-1"?>
<!-- Generator: Adobe Illustrator 19.0.0, SVG Export Plug-In . SVG Version: 6.00 Build 0)  -->
<svg version="1.1" id="Capa_1" xmlns="http://www.w3.org/2000/svg" xmlns:xlink="http://www.w3.org/1999/xlink" x="0px" y="0px"
	 viewBox="0 0 512 512" style="enable-background:new 0 0 512 512;" xml:space="preserve">
<circle style="fill:#FFAA20;" cx="256" cy="256" r="256"/>
<path style="fill:#E67500;" d="M512,256c0-18.954-2.078-37.42-5.986-55.2H383.78v6.122h-6.816c0,0-13.133-15.927-43.089-22.346
	c-3.274-0.701-39.735-6.426-33.302,15.52c0.85,2.898,5.044,4.702,8.522,5.723c0.034,0.358,0.082,0.726,0.144,1.103H280.88
	c-9.647,0-17.468,7.821-17.468,17.468c0,4.292,1.55,8.221,4.119,11.261l-22.963-22.407c-3.203-3.862-8.037-6.322-13.447-6.322
	h-3.125l-17.691-17.568c-6.764-8.945-29.619-5.327-32.179-4.778c-29.956,6.419-43.089,22.346-43.089,22.346h-6.816V200.8H5.986
	c-0.1,0.457-0.201,0.915-0.299,1.373c-0.291,1.36-0.573,2.723-0.842,4.091c-0.166,0.841-0.327,1.684-0.484,2.528
	c-0.248,1.328-0.484,2.66-0.711,3.995c-0.15,0.882-0.298,1.764-0.439,2.648c-0.209,1.311-0.404,2.627-0.593,3.945
	c-0.13,0.907-0.261,1.813-0.381,2.723c-0.174,1.312-0.331,2.628-0.484,3.946c-0.107,0.919-0.218,1.837-0.315,2.759
	c-0.14,1.329-0.261,2.664-0.381,3.999c-0.082,0.913-0.171,1.824-0.243,2.74c-0.109,1.383-0.196,2.773-0.283,4.162
	c-0.055,0.872-0.12,1.742-0.166,2.617c-0.08,1.523-0.133,3.053-0.187,4.583c-0.026,0.746-0.065,1.489-0.085,2.237
	C0.033,251.423,0,253.708,0,256c0,1.907,0.031,3.806,0.072,5.703c0.014,0.632,0.03,1.263,0.049,1.894
	c0.049,1.69,0.11,3.377,0.192,5.059c0.027,0.559,0.062,1.116,0.093,1.674c0.078,1.413,0.167,2.822,0.268,4.228
	c0.045,0.627,0.088,1.254,0.138,1.879c0.137,1.73,0.289,3.456,0.46,5.176c0.054,0.542,0.114,1.082,0.171,1.623
	c0.156,1.478,0.324,2.952,0.506,4.422c0.054,0.441,0.104,0.883,0.161,1.324c0.23,1.791,0.482,3.576,0.749,5.355
	c0.072,0.478,0.146,0.955,0.22,1.432c0.288,1.845,0.587,3.686,0.914,5.518c0.004,0.023,0.008,0.047,0.013,0.07
	c0.337,1.885,0.701,3.76,1.079,5.631c0.073,0.36,0.145,0.72,0.219,1.079c0.387,1.874,0.791,3.742,1.219,5.601
	c0.038,0.165,0.078,0.329,0.117,0.495c0.423,1.82,0.866,3.633,1.327,5.438c0.048,0.189,0.095,0.379,0.144,0.568
	c0.489,1.894,1,3.779,1.531,5.656c0.061,0.215,0.123,0.429,0.184,0.643c0.208,0.728,0.433,1.449,0.647,2.175l172.884,172.884
	C206.388,508.331,230.764,512,256,512C397.385,512,512,397.385,512,256z"/>
<path style="fill:#FFDCA8;" d="M247.218,250.673c0-4.923-2.04-9.368-5.317-12.543c4.07-3.198,6.688-8.161,6.688-13.739
	c0-9.647-7.821-17.468-17.468-17.468h-33.119c0,0,11.926-1.71,13.425-6.826c6.433-21.946-30.028-16.222-33.302-15.52
	c-29.956,6.419-43.089,22.346-43.089,22.346h-14.623v112.66h106.763c6.604-2.493,11.302-8.869,11.302-16.345
	c0-3.909-1.284-7.517-3.453-10.428c5.984-2.772,10.136-8.827,10.136-15.855c0-4.771-1.915-9.093-5.015-12.246
	C244.436,261.526,247.218,256.425,247.218,250.673z"/>
<path style="fill:#FFC56E;" d="M227.178,319.58c6.6-2.487,11.303-8.869,11.303-16.343c0-3.906-1.288-7.516-3.456-10.429
	c5.985-2.771,10.139-8.827,10.139-15.852c0-4.774-1.914-9.093-5.016-12.248H120.414v54.874h106.764L227.178,319.58z"/>
<path style="fill:#802897;" d="M128.22,200.8v127.81H10.44c-6.01-20.36-9.55-41.77-10.29-63.9C0.05,261.82,0,258.91,0,256
	c0-18.95,2.06-37.42,5.97-55.2H128.22z"/>
<path style="fill:#451152;" d="M128.22,264.71v63.9H10.44c-6.01-20.36-9.55-41.77-10.29-63.9H128.22z"/>
<path style="fill:#9A4C00;" d="M264.782,250.673c0-4.923,2.04-9.368,5.317-12.543c-4.07-3.198-6.688-8.161-6.688-13.739
	c0-9.647,7.821-17.468,17.468-17.468h33.119c0,0-11.926-1.71-13.426-6.826c-6.433-21.946,30.028-16.222,33.302-15.52
	c29.956,6.419,43.089,22.346,43.089,22.346h14.623v112.66H284.823c-6.604-2.493-11.302-8.869-11.302-16.345
	c0-3.909,1.284-7.517,3.453-10.428c-5.984-2.772-10.136-8.827-10.136-15.855c0-4.771,1.915-9.093,5.015-12.246
	C267.564,261.526,264.782,256.425,264.782,250.673z"/>
<path style="fill:#703700;" d="M284.822,319.58c-6.6-2.487-11.303-8.869-11.303-16.343c0-3.906,1.288-7.516,3.456-10.429
	c-5.985-2.771-10.139-8.827-10.139-15.852c0-4.774,1.914-9.093,5.016-12.248h119.733v54.874H284.822V319.58z"/>
<path style="fill:#00EFD1;" d="M512,256c0,2.91-0.05,5.82-0.15,8.71c-0.74,22.13-4.28,43.54-10.29,63.9H383.78V200.8h122.25
	C509.94,218.58,512,237.05,512,256z"/>
<path style="fill:#00AD95;" d="M511.85,264.71c-0.74,22.13-4.28,43.54-10.29,63.9H383.78v-63.9H511.85z"/>
<g>
</g>
<g>
</g>
<g>
</g>
<g>
</g>
<g>
</g>
<g>
</g>
<g>
</g>
<g>
</g>
<g>
</g>
<g>
</g>
<g>
</g>
<g>
</g>
<g>
</g>
<g>
</g>
<g>
</g>
</svg>
